# xmcd
#
# Track frame offsets:
#	150
#	13788
#	27173
#	41181
#	55568
#	70815
#	84405
#	98843
#	113394
#	127363
#	140991
#	155748
#	169571
#	182721
#
# Disc length: 2619 seconds
# Revision: 0
# Processed by: cddbd v1.5.2PL0 Copyright (c) Steve Scherf et al.
# Submitted via: dBpowerAMP V12.0
#
DISCID=bd0a390e
DTITLE=Various Artist - Please Warm My Weiner
DYEAR=2007
DGENRE=Hokum Blues
TTITLE0=Whistling Bob Howe and Frankie Griggs - The Coldest Stuff In Town
TTITLE1=Tommy Bradley and James Cole - Adam and Eve
TTITLE2=Buddie Burton - Ham Fatchet Blues Part.1
TTITLE3=Georgia Tom and Tampa Red - The Alley Crap Game
TTITLE4=Rufus and Ben Quillian - Satisfaction Blues
TTITLE5=Hokum Boys - I Had to Give It Up Gym
TTITLE6=Papa Charlie Jackson - You Put in I'Ll Take It Out
TTITLE7=Butterbeans and Susie - Elevator Papa Switchboard Mama
TTITLE8=Robert and Charlie Hicks - Darktown Gambling the Crap Game
TTITLE9=Yazoo All Stars - Hometown Skiffle, Pt. 1
TTITLE10=Yazoo All Stars - Hometown Skiffle, Pt. 2
TTITLE11=Memphis Minnie - Banana Blues
TTITLE12=Leola B. and Kid Wesley Wilson - Uncle Joe
TTITLE13=Bo Carter - Please Warm My Weiner
EXTD=
EXTT0=
EXTT1=
EXTT2=
EXTT3=
EXTT4=
EXTT5=
EXTT6=
EXTT7=
EXTT8=
EXTT9=
EXTT10=
EXTT11=
EXTT12=
EXTT13=
PLAYORDER=
